<svg width="24" height="24" viewBox="0 0 24 24" fill="none" xmlns="http://www.w3.org/2000/svg">
<path d="M2.25 0.75C1.83579 0.335786 1.16421 0.335787 0.75 0.75C0.335787 1.16421 0.335786 1.83579 0.749999 2.25L21.75 23.25C22.1642 23.6642 22.8358 23.6642 23.25 23.25C23.6642 22.8358 23.6642 22.1642 23.25 21.75L2.25 0.75Z" fill="#143C56"/>
<path d="M21.75 0.75C22.1642 0.335786 22.8358 0.335787 23.25 0.75C23.6642 1.16421 23.6642 1.83579 23.25 2.25L2.25 23.25C1.83579 23.6642 1.16421 23.6642 0.75 23.25C0.335787 22.8358 0.335786 22.1642 0.749999 21.75L21.75 0.75Z" fill="#143C56"/>
</svg>
