<svg width="30" height="30" viewBox="0 0 30 30" fill="none" xmlns="http://www.w3.org/2000/svg">
<path d="M21.9968 13.5243C22.0282 12.599 21.8292 11.6806 21.4181 10.8544C21.1391 10.5154 20.752 10.2866 20.3242 10.208C18.5546 10.0447 16.7778 9.97784 15.0012 10.0076C13.2311 9.9765 11.4606 10.0412 9.69727 10.2015C9.34864 10.266 9.02602 10.4322 8.76876 10.6799C8.1964 11.2164 8.1328 12.1344 8.0692 12.9102C7.97693 14.305 7.97693 15.7045 8.0692 17.0993C8.0876 17.5359 8.15156 17.9693 8.25999 18.3922C8.33667 18.7187 8.49181 19.0208 8.71152 19.2714C8.97053 19.5322 9.30067 19.7079 9.65911 19.7756C11.0302 19.9477 12.4117 20.0189 13.7929 19.9889C16.0187 20.0213 17.9711 19.9889 20.2797 19.8079C20.6469 19.7444 20.9864 19.5685 21.2527 19.3037C21.4307 19.1226 21.5637 18.901 21.6406 18.6572C21.8681 17.9478 21.9798 17.2053 21.9713 16.4593C21.9968 16.0972 21.9968 13.9122 21.9968 13.5243ZM13.5639 16.8471V12.8455L17.3288 14.856C16.2731 15.4508 14.8804 16.1231 13.5639 16.8471Z" fill="#9B9EAE"/>
<rect x="0.5" y="0.5" width="29" height="29" rx="14.5" stroke="#E2E2E5"/>
</svg>
