<svg width="30" height="30" viewBox="0 0 30 30" fill="none" xmlns="http://www.w3.org/2000/svg">
<path d="M16 10.5977C15.0516 10.5977 14.1706 10.8779 13.413 11.3565V8H11V20.3696H13.413V20.2411C14.1706 20.7198 15.0516 21 16 21C18.7553 21 21 18.665 21 15.7988C21 12.9326 18.7553 10.5977 16 10.5977ZM16 18.4841C14.5746 18.4841 13.413 17.2757 13.413 15.793C13.413 14.3103 14.5746 13.1019 16 13.1019C17.4254 13.1019 18.587 14.3103 18.587 15.793C18.587 17.2757 17.4254 18.4841 16 18.4841Z" fill="#9B9EAE"/>
<rect x="0.5" y="0.5" width="29" height="29" rx="14.5" stroke="#E2E2E5"/>
</svg>
