<svg width="44" height="44" viewBox="0 0 44 44" fill="none" xmlns="http://www.w3.org/2000/svg">
<path d="M29.4122 36.9437C25.3363 41.0196 18.6652 41.0196 14.5872 36.9437L7.05592 29.4124C2.98006 25.3365 2.98006 18.6654 7.05592 14.5875L14.5872 7.05616C18.6652 2.9803 25.3342 2.9803 29.4122 7.05616L36.9435 14.5875C41.0193 18.6633 41.0193 25.3344 36.9435 29.4124L29.4122 36.9437Z" fill="#ED1B23"/>
<path d="M18.2766 31.2194C17.7771 31.2194 17.3705 30.8285 17.3495 30.3308C17.339 30.0837 17.4266 29.8453 17.5931 29.6631C17.7613 29.4808 17.9892 29.3739 18.238 29.3634C18.748 29.3388 19.1827 29.7402 19.2037 30.2519C19.2247 30.7637 18.8252 31.1966 18.3152 31.2176C18.3011 31.2176 18.2889 31.2176 18.2748 31.2176L18.2766 31.2194Z" fill="white"/>
<path d="M21.6537 14.0862C21.1437 14.0862 20.7371 14.2457 20.4059 14.5735C19.6943 15.2815 19.321 16.7414 19.3543 18.685C19.3946 21.0808 19.9642 25.783 21.85 28.2033C22.1549 28.5958 22.4844 28.9078 22.8262 29.1339C23.1574 29.353 23.5307 29.5668 24.1108 29.5668C24.2685 29.5668 24.4385 29.551 24.6138 29.5194C25.6951 29.2601 27.0481 28.0578 28.0541 26.4559C28.2083 26.2123 28.4712 26.0669 28.7604 26.0669C28.9164 26.0669 29.0689 26.1107 29.2021 26.1948C29.3896 26.314 29.521 26.498 29.5701 26.7153C29.6192 26.9326 29.5824 27.1552 29.4632 27.3427C28.1891 29.367 26.5083 30.7901 24.9661 31.1458C24.9608 31.1476 24.945 31.1511 24.9275 31.1546C24.6454 31.2072 24.3667 31.2335 24.1021 31.2335C23.1066 31.2335 22.4056 30.8549 21.9061 30.5237C21.4118 30.1959 20.9509 29.7596 20.5338 29.2268C17.8804 25.8198 17.6999 19.4316 17.6876 18.7148C17.6596 17.0148 17.9032 14.7119 19.2316 13.394C19.8801 12.7508 20.6915 12.4248 21.6449 12.4248H21.7992C22.7543 12.4248 23.5675 12.7508 24.216 13.394C25.5444 14.7119 25.788 17.0148 25.76 18.7148C25.7302 20.4867 25.406 23.9165 23.5693 26.9922C23.4203 27.2428 23.1451 27.3971 22.8542 27.3971C22.7035 27.3971 22.5563 27.3568 22.4283 27.2797C22.0358 27.0448 21.9061 26.5331 22.1409 26.1387C23.4256 23.9866 24.0477 21.6188 24.0968 18.6868C24.1301 16.7432 23.7568 15.2833 23.0452 14.5752C22.7158 14.2475 22.3092 14.088 21.8009 14.088H21.6555L21.6537 14.0862Z" fill="white"/>
</svg>
