<svg width="30" height="30" viewBox="0 0 30 30" fill="none" xmlns="http://www.w3.org/2000/svg">
<path d="M18.738 10.422C18.5719 10.422 18.4095 10.4713 18.2713 10.5636C18.1332 10.6559 18.0255 10.7871 17.9619 10.9405C17.8984 11.094 17.8817 11.2629 17.9141 11.4259C17.9466 11.5888 18.0266 11.7385 18.144 11.856C18.2615 11.9734 18.4112 12.0534 18.5741 12.0859C18.7371 12.1183 18.906 12.1016 19.0595 12.0381C19.2129 11.9745 19.3441 11.8668 19.4364 11.7287C19.5287 11.5905 19.578 11.4281 19.578 11.262C19.578 11.0392 19.4895 10.8256 19.332 10.668C19.1744 10.5105 18.9608 10.422 18.738 10.422ZM21.958 12.116C21.9444 11.5352 21.8356 10.9606 21.636 10.415C21.458 9.94819 21.181 9.52549 20.824 9.176C20.4774 8.8172 20.0537 8.54192 19.585 8.371C19.0409 8.16531 18.4656 8.05405 17.884 8.042C17.142 8 16.904 8 15 8C13.096 8 12.858 8 12.116 8.042C11.5344 8.05405 10.9591 8.16531 10.415 8.371C9.94717 8.54365 9.52385 8.81869 9.176 9.176C8.8172 9.52262 8.54192 9.94631 8.371 10.415C8.16531 10.9591 8.05405 11.5344 8.042 12.116C8 12.858 8 13.096 8 15C8 16.904 8 17.142 8.042 17.884C8.05405 18.4656 8.16531 19.0409 8.371 19.585C8.54192 20.0537 8.8172 20.4774 9.176 20.824C9.52385 21.1813 9.94717 21.4563 10.415 21.629C10.9591 21.8347 11.5344 21.946 12.116 21.958C12.858 22 13.096 22 15 22C16.904 22 17.142 22 17.884 21.958C18.4656 21.946 19.0409 21.8347 19.585 21.629C20.0537 21.4581 20.4774 21.1828 20.824 20.824C21.1826 20.4758 21.4598 20.0527 21.636 19.585C21.8356 19.0394 21.9444 18.4648 21.958 17.884C21.958 17.142 22 16.904 22 15C22 13.096 22 12.858 21.958 12.116ZM20.698 17.8C20.6929 18.2443 20.6124 18.6846 20.46 19.102C20.3482 19.4066 20.1687 19.6819 19.935 19.907C19.708 20.1384 19.4333 20.3175 19.13 20.432C18.7126 20.5844 18.2723 20.6649 17.828 20.67C17.128 20.705 16.869 20.712 15.028 20.712C13.187 20.712 12.928 20.712 12.228 20.67C11.7666 20.6786 11.3072 20.6076 10.87 20.46C10.58 20.3397 10.3179 20.161 10.1 19.935C9.86766 19.7101 9.69039 19.4346 9.582 19.13C9.4111 18.7066 9.31631 18.2564 9.302 17.8C9.302 17.1 9.26 16.841 9.26 15C9.26 13.159 9.26 12.9 9.302 12.2C9.30514 11.7457 9.38807 11.2956 9.547 10.87C9.67023 10.5745 9.85939 10.3112 10.1 10.1C10.3127 9.85932 10.5755 9.66817 10.87 9.54C11.2967 9.38603 11.7464 9.30556 12.2 9.302C12.9 9.302 13.159 9.26 15 9.26C16.841 9.26 17.1 9.26 17.8 9.302C18.2443 9.3071 18.6846 9.38757 19.102 9.54C19.4201 9.65806 19.7056 9.84999 19.935 10.1C20.1644 10.315 20.3436 10.5779 20.46 10.87C20.6156 11.2963 20.6961 11.7462 20.698 12.2C20.733 12.9 20.74 13.159 20.74 15C20.74 16.841 20.733 17.1 20.698 17.8ZM15 11.409C14.2901 11.4104 13.5965 11.6222 13.0069 12.0176C12.4172 12.413 11.9581 12.9743 11.6873 13.6306C11.4166 14.2869 11.3465 15.0087 11.4859 15.7049C11.6252 16.401 11.9678 17.0402 12.4703 17.5417C12.9727 18.0432 13.6126 18.3845 14.309 18.5225C15.0054 18.6605 15.7271 18.589 16.3828 18.317C17.0386 18.045 17.599 17.5847 17.9933 16.9943C18.3876 16.4039 18.598 15.7099 18.598 15C18.5989 14.5276 18.5064 14.0596 18.3259 13.6231C18.1453 13.1865 17.8802 12.79 17.5458 12.4562C17.2114 12.1225 16.8144 11.8582 16.3775 11.6785C15.9406 11.4987 15.4724 11.4072 15 11.409ZM15 17.331C14.539 17.331 14.0883 17.1943 13.705 16.9382C13.3216 16.682 13.0229 16.318 12.8464 15.892C12.67 15.4661 12.6238 14.9974 12.7138 14.5452C12.8037 14.0931 13.0257 13.6777 13.3517 13.3517C13.6777 13.0257 14.0931 12.8037 14.5452 12.7138C14.9974 12.6238 15.4661 12.67 15.892 12.8464C16.318 13.0229 16.682 13.3216 16.9382 13.705C17.1943 14.0883 17.331 14.539 17.331 15C17.331 15.3061 17.2707 15.6092 17.1536 15.892C17.0364 16.1748 16.8647 16.4318 16.6483 16.6483C16.4318 16.8647 16.1748 17.0364 15.892 17.1536C15.6092 17.2707 15.3061 17.331 15 17.331Z" fill="#9B9EAE"/>
<rect x="0.5" y="0.5" width="29" height="29" rx="14.5" stroke="#E2E2E5"/>
</svg>
